<svg width="234" height="94" viewBox="0 0 234 94" fill="none" xmlns="http://www.w3.org/2000/svg">
<path d="M101.16 38C101.328 38 101.496 37.832 101.664 37.496C101.832 37.16 101.916 36.608 101.916 35.84V18.56C101.916 17.792 101.832 17.252 101.664 16.94C101.496 16.604 101.328 16.424 101.16 16.4H113.94C116.844 16.4 118.896 16.88 120.096 17.84C121.296 18.8 121.896 20.096 121.896 21.728C121.896 22.928 121.572 23.888 120.924 24.608C120.3 25.328 119.64 25.808 118.944 26.048V26.12C122.088 26.84 123.66 28.712 123.66 31.736C123.66 32.912 123.384 33.98 122.832 34.94C122.28 35.876 121.392 36.62 120.168 37.172C118.968 37.724 117.372 38 115.38 38H101.16ZM107.424 25.544H113.976C115.32 25.544 116.304 25.292 116.928 24.788C117.576 24.26 117.9 23.408 117.9 22.232C117.9 21.248 117.576 20.516 116.928 20.036C116.304 19.532 115.212 19.28 113.652 19.28H107.424C106.704 19.28 106.272 19.328 106.128 19.424C106.008 19.496 105.948 19.808 105.948 20.36V24.464C105.948 24.992 106.008 25.304 106.128 25.4C106.272 25.496 106.704 25.544 107.424 25.544ZM107.388 35.084H114.732C116.484 35.084 117.732 34.772 118.476 34.148C119.244 33.5 119.628 32.648 119.628 31.592C119.628 30.368 119.196 29.48 118.332 28.928C117.492 28.352 115.932 28.064 113.652 28.064H107.424C106.704 28.064 106.272 28.112 106.128 28.208C106.008 28.304 105.948 28.628 105.948 29.18V34.004C105.948 34.532 106.008 34.844 106.128 34.94C106.272 35.036 106.692 35.084 107.388 35.084ZM133.266 38.36C130.65 38.36 128.814 37.892 127.758 36.956C126.702 35.996 126.174 34.712 126.174 33.104C126.174 31.424 126.81 30.104 128.082 29.144C129.354 28.184 131.298 27.704 133.914 27.704C135.786 27.704 137.286 27.896 138.414 28.28C139.542 28.64 140.298 28.952 140.682 29.216C140.658 27.08 140.25 25.568 139.458 24.68C138.69 23.768 137.322 23.312 135.354 23.312C133.938 23.312 132.666 23.48 131.538 23.816C130.434 24.128 129.546 24.476 128.874 24.86C128.202 25.22 127.782 25.484 127.614 25.652V24.932L127.254 22.232C127.47 22.136 127.938 21.98 128.658 21.764C129.378 21.524 130.326 21.308 131.502 21.116C132.678 20.9 134.058 20.792 135.642 20.792C138.666 20.792 140.874 21.44 142.266 22.736C143.658 24.008 144.354 25.976 144.354 28.64V35.84C144.354 36.512 144.426 37.004 144.57 37.316C144.738 37.604 144.906 37.832 145.074 38H140.682V36.92L140.754 36.236L140.682 36.2C139.89 36.92 138.858 37.46 137.586 37.82C136.314 38.18 134.874 38.36 133.266 38.36ZM134.454 35.804C136.398 35.804 137.922 35.528 139.026 34.976C140.13 34.4 140.682 33.68 140.682 32.816C140.682 32.096 140.202 31.484 139.242 30.98C138.306 30.476 136.842 30.224 134.85 30.224C133.002 30.224 131.694 30.464 130.926 30.944C130.182 31.424 129.81 32.144 129.81 33.104C129.81 34.04 130.17 34.724 130.89 35.156C131.634 35.588 132.822 35.804 134.454 35.804ZM148.187 38C148.355 38 148.511 37.832 148.655 37.496C148.823 37.16 148.907 36.608 148.907 35.84V23.672C148.907 22.904 148.823 22.364 148.655 22.052C148.511 21.716 148.355 21.536 148.187 21.512C149.243 21.512 150.155 21.44 150.923 21.296C151.715 21.128 152.267 20.96 152.579 20.792V22.988L152.507 23.456L152.579 23.528C153.107 22.856 153.887 22.232 154.919 21.656C155.951 21.08 157.319 20.792 159.023 20.792C161.255 20.792 162.959 21.428 164.135 22.7C165.335 23.972 165.935 25.964 165.935 28.676V35.84C165.935 36.608 166.007 37.16 166.151 37.496C166.319 37.832 166.487 38 166.655 38H161.543C161.711 38 161.867 37.832 162.011 37.496C162.179 37.16 162.263 36.608 162.263 35.84V28.784C162.263 27.368 162.083 26.264 161.723 25.472C161.363 24.68 160.859 24.128 160.211 23.816C159.587 23.48 158.855 23.312 158.015 23.312C157.127 23.312 156.263 23.504 155.423 23.888C154.583 24.272 153.899 24.884 153.371 25.724C152.843 26.564 152.579 27.692 152.579 29.108V35.84C152.579 36.608 152.651 37.16 152.795 37.496C152.963 37.832 153.131 38 153.299 38H148.187ZM176.614 38.36C173.998 38.36 172.162 37.892 171.106 36.956C170.05 35.996 169.522 34.712 169.522 33.104C169.522 31.424 170.158 30.104 171.43 29.144C172.702 28.184 174.646 27.704 177.262 27.704C179.134 27.704 180.634 27.896 181.762 28.28C182.89 28.64 183.646 28.952 184.03 29.216C184.006 27.08 183.598 25.568 182.806 24.68C182.038 23.768 180.67 23.312 178.702 23.312C177.286 23.312 176.014 23.48 174.886 23.816C173.782 24.128 172.894 24.476 172.222 24.86C171.55 25.22 171.13 25.484 170.962 25.652V24.932L170.602 22.232C170.818 22.136 171.286 21.98 172.006 21.764C172.726 21.524 173.674 21.308 174.85 21.116C176.026 20.9 177.406 20.792 178.99 20.792C182.014 20.792 184.222 21.44 185.614 22.736C187.006 24.008 187.702 25.976 187.702 28.64V35.84C187.702 36.512 187.774 37.004 187.918 37.316C188.086 37.604 188.254 37.832 188.422 38H184.03V36.92L184.102 36.236L184.03 36.2C183.238 36.92 182.206 37.46 180.934 37.82C179.662 38.18 178.222 38.36 176.614 38.36ZM177.802 35.804C179.746 35.804 181.27 35.528 182.374 34.976C183.478 34.4 184.03 33.68 184.03 32.816C184.03 32.096 183.55 31.484 182.59 30.98C181.654 30.476 180.19 30.224 178.198 30.224C176.35 30.224 175.042 30.464 174.274 30.944C173.53 31.424 173.158 32.144 173.158 33.104C173.158 34.04 173.518 34.724 174.238 35.156C174.982 35.588 176.17 35.804 177.802 35.804ZM191.535 38C191.703 38 191.859 37.832 192.003 37.496C192.171 37.16 192.255 36.608 192.255 35.84V23.672C192.255 22.904 192.171 22.364 192.003 22.052C191.859 21.716 191.703 21.536 191.535 21.512C192.591 21.512 193.503 21.44 194.271 21.296C195.063 21.128 195.615 20.96 195.927 20.792V22.988L195.855 23.456L195.927 23.528C196.455 22.856 197.235 22.232 198.267 21.656C199.299 21.08 200.667 20.792 202.371 20.792C204.603 20.792 206.307 21.428 207.483 22.7C208.683 23.972 209.283 25.964 209.283 28.676V35.84C209.283 36.608 209.355 37.16 209.499 37.496C209.667 37.832 209.835 38 210.003 38H204.891C205.059 38 205.215 37.832 205.359 37.496C205.527 37.16 205.611 36.608 205.611 35.84V28.784C205.611 27.368 205.431 26.264 205.071 25.472C204.711 24.68 204.207 24.128 203.559 23.816C202.935 23.48 202.203 23.312 201.363 23.312C200.475 23.312 199.611 23.504 198.771 23.888C197.931 24.272 197.247 24.884 196.719 25.724C196.191 26.564 195.927 27.692 195.927 29.108V35.84C195.927 36.608 195.999 37.16 196.143 37.496C196.311 37.832 196.479 38 196.647 38H191.535ZM219.962 38.36C217.346 38.36 215.51 37.892 214.454 36.956C213.398 35.996 212.87 34.712 212.87 33.104C212.87 31.424 213.506 30.104 214.778 29.144C216.05 28.184 217.994 27.704 220.61 27.704C222.482 27.704 223.982 27.896 225.11 28.28C226.238 28.64 226.994 28.952 227.378 29.216C227.354 27.08 226.946 25.568 226.154 24.68C225.386 23.768 224.018 23.312 222.05 23.312C220.634 23.312 219.362 23.48 218.234 23.816C217.13 24.128 216.242 24.476 215.57 24.86C214.898 25.22 214.478 25.484 214.31 25.652V24.932L213.95 22.232C214.166 22.136 214.634 21.98 215.354 21.764C216.074 21.524 217.022 21.308 218.198 21.116C219.374 20.9 220.754 20.792 222.338 20.792C225.362 20.792 227.57 21.44 228.962 22.736C230.354 24.008 231.05 25.976 231.05 28.64V35.84C231.05 36.512 231.122 37.004 231.266 37.316C231.434 37.604 231.602 37.832 231.77 38H227.378V36.92L227.45 36.236L227.378 36.2C226.586 36.92 225.554 37.46 224.282 37.82C223.01 38.18 221.57 38.36 219.962 38.36ZM221.15 35.804C223.094 35.804 224.618 35.528 225.722 34.976C226.826 34.4 227.378 33.68 227.378 32.816C227.378 32.096 226.898 31.484 225.938 30.98C225.002 30.476 223.538 30.224 221.546 30.224C219.698 30.224 218.39 30.464 217.622 30.944C216.878 31.424 216.506 32.144 216.506 33.104C216.506 34.04 216.866 34.724 217.586 35.156C218.33 35.588 219.518 35.804 221.15 35.804ZM111.168 83.36C107.904 83.36 105.324 82.46 103.428 80.66C101.556 78.836 100.62 76.04 100.62 72.272C100.62 70.064 101.04 68.12 101.88 66.44C102.72 64.736 104.052 63.416 105.876 62.48C107.7 61.52 110.064 61.04 112.968 61.04C115.248 61.04 117.132 61.16 118.62 61.4C120.132 61.64 121.164 61.88 121.716 62.12V62.84L122.436 66.08C121.788 65.6 120.648 65.12 119.016 64.64C117.384 64.16 115.392 63.92 113.04 63.92C111.12 63.92 109.536 64.28 108.288 65C107.04 65.696 106.116 66.668 105.516 67.916C104.94 69.164 104.652 70.616 104.652 72.272C104.652 74.888 105.264 76.904 106.488 78.32C107.736 79.736 109.788 80.444 112.644 80.444C114.276 80.444 115.572 80.264 116.532 79.904C117.492 79.544 118.176 79.064 118.584 78.464C118.992 77.84 119.196 77.168 119.196 76.448V75.512C119.196 74.96 119.148 74.648 119.052 74.576C118.98 74.48 118.668 74.432 118.116 74.432H116.964C115.62 74.432 114.54 74.516 113.724 74.684C112.932 74.852 112.428 75.02 112.212 75.188L112.572 72.344V71.624H123.912C123.744 71.648 123.576 71.828 123.408 72.164C123.264 72.476 123.192 73.016 123.192 73.784V80.84C123.192 81.608 123.264 82.16 123.408 82.496C123.576 82.832 123.744 83 123.912 83H119.196V82.172L119.268 81.164L119.196 81.092C118.812 81.5 118.308 81.884 117.684 82.244C117.06 82.58 116.22 82.844 115.164 83.036C114.132 83.252 112.8 83.36 111.168 83.36ZM134.251 83.36C131.635 83.36 129.799 82.892 128.743 81.956C127.687 80.996 127.159 79.712 127.159 78.104C127.159 76.424 127.795 75.104 129.067 74.144C130.339 73.184 132.283 72.704 134.899 72.704C136.771 72.704 138.271 72.896 139.399 73.28C140.527 73.64 141.283 73.952 141.667 74.216C141.643 72.08 141.235 70.568 140.443 69.68C139.675 68.768 138.307 68.312 136.339 68.312C134.923 68.312 133.651 68.48 132.523 68.816C131.419 69.128 130.531 69.476 129.859 69.86C129.187 70.22 128.767 70.484 128.599 70.652V69.932L128.239 67.232C128.455 67.136 128.923 66.98 129.643 66.764C130.363 66.524 131.311 66.308 132.487 66.116C133.663 65.9 135.043 65.792 136.627 65.792C139.651 65.792 141.859 66.44 143.251 67.736C144.643 69.008 145.339 70.976 145.339 73.64V80.84C145.339 81.512 145.411 82.004 145.555 82.316C145.723 82.604 145.891 82.832 146.059 83H141.667V81.92L141.739 81.236L141.667 81.2C140.875 81.92 139.843 82.46 138.571 82.82C137.299 83.18 135.859 83.36 134.251 83.36ZM135.439 80.804C137.383 80.804 138.907 80.528 140.011 79.976C141.115 79.4 141.667 78.68 141.667 77.816C141.667 77.096 141.187 76.484 140.227 75.98C139.291 75.476 137.827 75.224 135.835 75.224C133.987 75.224 132.679 75.464 131.911 75.944C131.167 76.424 130.795 77.144 130.795 78.104C130.795 79.04 131.155 79.724 131.875 80.156C132.619 80.588 133.807 80.804 135.439 80.804ZM149.172 83C149.34 83 149.496 82.832 149.64 82.496C149.808 82.16 149.892 81.608 149.892 80.84V68.672C149.892 67.904 149.808 67.364 149.64 67.052C149.496 66.716 149.34 66.536 149.172 66.512C150.228 66.512 151.14 66.44 151.908 66.296C152.7 66.128 153.252 65.96 153.564 65.792V67.988L153.492 68.456L153.564 68.528C153.924 68.072 154.32 67.64 154.752 67.232C155.208 66.824 155.796 66.488 156.516 66.224C157.236 65.936 158.16 65.792 159.288 65.792C160.752 65.792 161.988 66.068 162.996 66.62C164.028 67.148 164.82 67.976 165.372 69.104C165.66 68.624 166.068 68.132 166.596 67.628C167.148 67.124 167.856 66.692 168.72 66.332C169.584 65.972 170.64 65.792 171.888 65.792C174.12 65.792 175.824 66.428 177 67.7C178.2 68.972 178.8 70.964 178.8 73.676V80.84C178.8 81.608 178.872 82.16 179.016 82.496C179.184 82.832 179.352 83 179.52 83H174.408C174.576 83 174.732 82.832 174.876 82.496C175.044 82.16 175.128 81.608 175.128 80.84V73.784C175.128 72.368 174.948 71.264 174.588 70.472C174.228 69.68 173.724 69.128 173.076 68.816C172.452 68.48 171.72 68.312 170.88 68.312C169.488 68.312 168.36 68.756 167.496 69.644C166.632 70.508 166.2 71.984 166.2 74.072V80.84C166.2 81.608 166.272 82.16 166.416 82.496C166.584 82.832 166.752 83 166.92 83H161.808C161.976 83 162.132 82.832 162.276 82.496C162.444 82.16 162.528 81.608 162.528 80.84V73.784C162.528 72.368 162.348 71.264 161.988 70.472C161.628 69.68 161.124 69.128 160.476 68.816C159.852 68.48 159.12 68.312 158.28 68.312C156.936 68.312 155.808 68.756 154.896 69.644C154.008 70.508 153.564 71.996 153.564 74.108V80.84C153.564 81.608 153.636 82.16 153.78 82.496C153.948 82.832 154.116 83 154.284 83H149.172ZM191.641 83.36C189.745 83.36 188.185 83.144 186.961 82.712C185.737 82.256 184.777 81.632 184.081 80.84C183.385 80.048 182.893 79.124 182.605 78.068C182.341 77.012 182.209 75.86 182.209 74.612C182.209 71.9 182.977 69.752 184.513 68.168C186.073 66.584 188.377 65.792 191.425 65.792C193.201 65.792 194.629 66.032 195.709 66.512C196.813 66.992 197.641 67.628 198.193 68.42C198.769 69.212 199.153 70.076 199.345 71.012C199.561 71.924 199.669 72.824 199.669 73.712V75.404C199.669 75.332 199.333 75.26 198.661 75.188C198.013 75.092 196.909 75.044 195.349 75.044H185.881C185.881 76.82 186.409 78.224 187.465 79.256C188.521 80.288 190.093 80.804 192.181 80.804C193.981 80.804 195.457 80.588 196.609 80.156C197.785 79.7 198.565 79.256 198.949 78.824V79.544L199.309 81.92C198.781 82.232 197.845 82.556 196.501 82.892C195.181 83.204 193.561 83.36 191.641 83.36ZM187.321 72.668H196.069C196.069 72.044 195.937 71.396 195.673 70.724C195.409 70.052 194.941 69.488 194.269 69.032C193.597 68.552 192.649 68.312 191.425 68.312C189.865 68.312 188.617 68.684 187.681 69.428C186.769 70.172 186.313 71.012 186.313 71.948C186.313 72.188 186.385 72.368 186.529 72.488C186.673 72.608 186.937 72.668 187.321 72.668ZM212.074 83.36C209.818 83.36 207.922 83.24 206.386 83C204.874 82.76 203.842 82.52 203.29 82.28V81.56L202.534 78.464C203.158 78.968 204.25 79.496 205.81 80.048C207.394 80.576 209.314 80.84 211.57 80.84C213.058 80.84 214.174 80.744 214.918 80.552C215.662 80.336 216.154 80.06 216.394 79.724C216.634 79.364 216.754 78.968 216.754 78.536C216.754 78.032 216.574 77.636 216.214 77.348C215.878 77.036 215.23 76.784 214.27 76.592C213.334 76.376 211.942 76.16 210.094 75.944C208.078 75.704 206.518 75.356 205.414 74.9C204.334 74.444 203.59 73.868 203.182 73.172C202.774 72.452 202.57 71.6 202.57 70.616C202.57 69.848 202.774 69.092 203.182 68.348C203.59 67.604 204.346 66.992 205.45 66.512C206.578 66.032 208.174 65.792 210.238 65.792C212.47 65.792 214.342 65.912 215.854 66.152C217.39 66.392 218.434 66.632 218.986 66.872V67.592L219.706 70.328C219.106 69.896 218.014 69.452 216.43 68.996C214.846 68.54 212.938 68.312 210.706 68.312C208.93 68.312 207.742 68.516 207.142 68.924C206.542 69.308 206.242 69.812 206.242 70.436C206.242 70.796 206.314 71.12 206.458 71.408C206.602 71.672 206.89 71.912 207.322 72.128C207.778 72.344 208.45 72.536 209.338 72.704C210.25 72.872 211.462 73.04 212.974 73.208C215.014 73.424 216.562 73.76 217.618 74.216C218.674 74.672 219.394 75.248 219.778 75.944C220.186 76.616 220.39 77.408 220.39 78.32C220.39 79.304 220.114 80.18 219.562 80.948C219.034 81.692 218.158 82.28 216.934 82.712C215.71 83.144 214.09 83.36 212.074 83.36Z" fill="#FF4499"/>
<path fill-rule="evenodd" clip-rule="evenodd" d="M80.8427 47.6443C80.8427 66.3039 65.7161 81.4305 47.0565 81.4305C28.3969 81.4305 13.2703 66.3039 13.2703 47.6443C13.2703 28.9847 28.3969 13.8581 47.0565 13.8581C65.7161 13.8581 80.8427 28.9847 80.8427 47.6443ZM47.0565 79.4305C64.6115 79.4305 78.8427 65.1993 78.8427 47.6443C78.8427 30.0893 64.6115 15.8581 47.0565 15.8581C29.5015 15.8581 15.2703 30.0893 15.2703 47.6443C15.2703 65.1993 29.5015 79.4305 47.0565 79.4305Z" fill="#FF4499"/>
<path fill-rule="evenodd" clip-rule="evenodd" d="M43.0558 77.4308C60.6108 77.4308 74.8419 63.1996 74.8419 45.6446C74.8419 33.9893 68.5688 23.7991 59.2147 18.2663C70.7371 23.0403 78.8424 34.3957 78.8424 47.6442C78.8424 65.1993 64.6112 79.4304 47.0562 79.4304C41.1565 79.4304 35.6322 77.8231 30.8973 75.0225C34.6427 76.5743 38.7492 77.4308 43.0558 77.4308Z" fill="#FF4499"/>
<path fill-rule="evenodd" clip-rule="evenodd" d="M10.0688 25.896C13.2716 36.2461 19.9456 48.6293 29.28 60.6601C38.6144 72.6909 48.9512 82.2323 58.181 87.9061C62.7892 90.7391 67.2156 92.6661 71.1703 93.4031C75.1224 94.1391 78.8438 93.719 81.6923 91.509C84.5412 89.299 85.8712 85.7991 86.1402 81.7878C86.4102 77.7741 85.6432 73.0076 84.0432 67.84C80.8407 57.49 74.1668 45.1066 64.8324 33.0759C55.498 21.0451 45.1612 11.5037 35.9314 5.82985C31.3232 2.99695 26.8967 1.06985 22.942 0.333447C18.9898 -0.402553 15.2686 0.0166459 12.4201 2.22675C9.57155 4.43685 8.24095 7.93725 7.97185 11.9483C7.70265 15.962 8.46965 20.7284 10.0688 25.896ZM30.8602 59.4341C12.4083 35.6521 4.70125 10.747 13.6461 3.80695C22.5909 -3.13315 44.8003 10.5199 63.2522 34.3019C81.7041 58.0838 89.4112 82.989 80.4663 89.929C71.5215 96.869 49.3121 83.216 30.8602 59.4341Z" fill="#FF4499"/>
<path fill-rule="evenodd" clip-rule="evenodd" d="M88.6212 35.0564C83.1432 44.5754 73.817 55.273 61.9938 65.0086C50.1705 74.7443 37.8823 81.8448 27.4891 85.394C22.3035 87.166 17.4326 88.107 13.2468 87.948C9.06505 87.789 5.20445 86.502 2.66635 83.42C0.128253 80.3376 -0.393948 76.3019 0.252552 72.1673C0.899552 68.0289 2.75805 63.429 5.49115 58.6796C10.9691 49.1606 20.2954 38.463 32.1186 28.7274C43.9419 18.9917 56.2301 11.8912 66.6233 8.34154C71.8088 6.57054 76.6798 5.62904 80.8655 5.78804C85.0472 5.94694 88.9082 7.23374 91.4462 10.316C93.9842 13.3984 94.5062 17.4341 93.8602 21.5687C93.2132 25.7071 91.3542 30.307 88.6212 35.0564ZM60.0868 62.6927C83.3232 43.5588 96.3261 20.9628 89.1301 12.223C81.9334 3.48334 57.2624 11.9094 34.0256 31.0433C10.7888 50.1772 -2.21435 72.7732 4.98225 81.513C12.1789 90.253 36.85 81.8266 60.0868 62.6927Z" fill="#FF4499"/>
<path d="M94.6572 25.8614C94.6572 27.9699 92.9471 29.6791 90.8391 29.6791C88.7311 29.6791 87.0211 27.9699 87.0211 25.8614C87.0211 23.7529 88.7311 22.0435 90.8391 22.0435C92.9471 22.0435 94.6572 23.7529 94.6572 25.8614Z" fill="#FF4499"/>
<path d="M38.626 29.6789C38.626 31.7874 36.9167 33.4966 34.8083 33.4966C32.6998 33.4966 30.9905 31.7874 30.9905 29.6789C30.9905 27.5704 32.6998 25.8612 34.8083 25.8612C36.9167 25.8612 38.626 27.5704 38.626 29.6789Z" fill="#FF4499"/>
<path d="M38.0085 80.1517C38.0085 83.407 35.3692 86.047 32.1134 86.047C28.8577 86.047 26.2184 83.407 26.2184 80.1517C26.2184 76.896 28.8577 74.2567 32.1134 74.2567C35.3692 74.2567 38.0085 76.896 38.0085 80.1517Z" fill="#FF4499"/>
</svg>
